<svg id="Layer_1" enable-background="new 0 0 509.951 509.951" height="512" viewBox="0 0 509.951 509.951" width="512" xmlns="http://www.w3.org/2000/svg"><g id="XMLID_268_"><path id="XMLID_371_" d="m128.178 210.841c-21.538 25.768-34.528 57.128-37.523 90.585h45.245c2.656-21.432 10.992-41.558 24.268-58.595z"/><path id="XMLID_285_" d="m239.976 197.35v-45.245c-33.458 2.995-64.818 15.986-90.585 37.522l31.99 31.991c17.041-13.277 37.165-21.612 58.595-24.268z"/><path id="XMLID_284_" d="m381.773 210.841-31.99 31.99c13.278 17.04 21.612 37.164 24.269 58.595h45.245c-2.995-33.457-15.986-64.818-37.524-90.585z"/><path id="XMLID_282_" d="m269.976 197.35c21.432 2.656 41.557 10.991 58.595 24.269l31.99-31.99c-25.768-21.537-57.129-34.527-90.585-37.523z"/><path id="XMLID_281_" d="m269.976 435.501v45.245c33.458-2.995 64.818-15.985 90.585-37.522l-31.99-31.99c-17.041 13.277-37.165 21.612-58.595 24.267z"/><path id="XMLID_280_" d="m160.169 390.02c-13.278-17.04-21.612-37.164-24.269-58.594h-45.245c2.995 33.457 15.986 64.817 37.523 90.585z"/><path id="XMLID_279_" d="m149.391 443.223c25.769 21.538 57.128 34.528 90.585 37.523v-45.245c-21.431-2.656-41.556-10.991-58.595-24.268z"/><path id="XMLID_276_" d="m318.616 252.779c-57.004-56.977-153.641-15.703-153.641 63.647 0 80.125 97.292 119.966 153.646 63.641 35.163-35.181 35.171-92.095-.005-127.288zm-21.214 106.073c-37.446 37.452-102.427 11.197-102.427-42.426 0-53.218 64.769-80.084 102.427-42.427 11.332 11.332 17.573 26.4 17.573 42.427.001 16.026-6.241 31.094-17.573 42.426z"/><path id="XMLID_275_" d="m349.783 390.021 31.99 31.989c21.538-25.768 34.528-57.128 37.523-90.584h-45.245c-2.655 21.431-10.99 41.556-24.268 58.595z"/><path id="XMLID_274_" d="m254.977 284.951c-16.568 0-30 13.432-30 30 1.58 39.794 58.425 39.783 60 0 0-16.568-13.432-30-30-30z"/><path id="XMLID_273_" d="m324.566 132.75c3.65-15.407 5.409-31.722 5.409-42.799 0-39.868-39.78-71.319-75-89.951-35.263 18.655-75 50.106-75 89.951 0 11.077 1.76 27.392 5.411 42.799 43.421-16.595 93.281-17.542 139.18 0z"/><path id="XMLID_272_" d="m423.542 216.875 43.493-46.768c-1.498-2.534-6.758-35.738-41.84-43.978-18.399-4.321-37.362 1.076-50.726 14.439l-11.805 11.804c24.901 16.528 45.785 38.617 60.878 64.503z"/><path id="XMLID_271_" d="m147.288 152.374-11.805-11.805c-28.483-28.486-76.925-17.035-89.726 21.08l-2.84 8.458 43.495 46.769c15.092-25.886 35.975-47.976 60.876-64.502z"/><path id="XMLID_270_" d="m80.607 402.311-15.194 17.545c-25.228 25.758-20.897 72.879 21.488 87.115l8.872 2.979 41.336-39.656c-23.648-17.971-43.064-41.214-56.502-67.983z"/><path id="XMLID_269_" d="m429.805 401.389c-13.289 26.827-32.567 50.154-56.092 68.239l40.378 40.323c3.383-1.886 36.504-6.857 44.472-40.781 4.269-18.178-.947-36.905-13.959-50.239z"/></g></svg>