<?xml version="1.0" encoding="utf-8"?>
<!-- Generator: Adobe Illustrator 24.1.1, SVG Export Plug-In . SVG Version: 6.00 Build 0)  -->
<svg version="1.1" id="Layer_1" xmlns="http://www.w3.org/2000/svg" xmlns:xlink="http://www.w3.org/1999/xlink" x="0px" y="0px"
	 viewBox="0 0 512 512" style="enable-background:new 0 0 512 512;" xml:space="preserve">
<style type="text/css">
	.st0{fill:#DDEBC7;}
</style>
<g id="XMLID_268_">
	<path id="XMLID_371_" class="st0" d="M128.7,211.7C107.1,237.6,94,269,91,302.6h45.4c2.7-21.5,11-41.7,24.4-58.8L128.7,211.7z"/>
	<path id="XMLID_285_" class="st0" d="M240.9,198.1v-45.4c-33.6,3-65.1,16.1-90.9,37.7l32.1,32.1
		C199.2,209.2,219.4,200.8,240.9,198.1z"/>
	<path id="XMLID_284_" class="st0" d="M383.3,211.7l-32.1,32.1c13.3,17.1,21.7,37.3,24.4,58.8H421C418,269,404.9,237.6,383.3,211.7
		L383.3,211.7z"/>
	<path id="XMLID_282_" class="st0" d="M271.1,198.1c21.5,2.7,41.7,11,58.8,24.4l32.1-32.1c-25.9-21.6-57.4-34.7-90.9-37.7V198.1z"/>
	<path id="XMLID_281_" class="st0" d="M271.1,437.3v45.4c33.6-3,65.1-16,90.9-37.7l-32.1-32.1C312.8,426.2,292.6,434.6,271.1,437.3z
		"/>
	<path id="XMLID_280_" class="st0" d="M160.8,391.6c-13.3-17.1-21.7-37.3-24.4-58.8H91c3,33.6,16.1,65.1,37.7,90.9L160.8,391.6z"/>
	<path id="XMLID_279_" class="st0" d="M150,445c25.9,21.6,57.4,34.7,90.9,37.7v-45.4c-21.5-2.7-41.7-11-58.8-24.4L150,445z"/>
	<path id="XMLID_276_" class="st0" d="M319.9,253.8c-57.2-57.2-154.3-15.8-154.3,63.9c0,80.4,97.7,120.4,154.3,63.9
		C355.2,346.3,355.2,289.1,319.9,253.8L319.9,253.8z M298.6,360.3c-37.6,37.6-102.8,11.2-102.8-42.6c0-53.4,65-80.4,102.8-42.6
		c11.4,11.4,17.6,26.5,17.6,42.6C316.2,333.8,310,348.9,298.6,360.3z"/>
	<path id="XMLID_275_" class="st0" d="M351.2,391.6l32.1,32.1c21.6-25.9,34.7-57.4,37.7-90.9h-45.4
		C372.9,354.3,364.5,374.5,351.2,391.6L351.2,391.6z"/>
	<path id="XMLID_274_" class="st0" d="M256,286.1c-16.6,0-30.1,13.5-30.1,30.1c1.6,40,58.7,39.9,60.2,0
		C286.1,299.6,272.6,286.1,256,286.1L256,286.1z"/>
	<path id="XMLID_273_" class="st0" d="M325.9,133.3c3.7-15.5,5.4-31.8,5.4-43c0-40-39.9-71.6-75.3-90.3
		c-35.4,18.7-75.3,50.3-75.3,90.3c0,11.1,1.8,27.5,5.4,43C229.7,116.6,279.8,115.7,325.9,133.3L325.9,133.3z"/>
	<path id="XMLID_272_" class="st0" d="M425.2,217.7l43.7-47c-1.5-2.5-6.8-35.9-42-44.2c-18.5-4.3-37.5,1.1-50.9,14.5L364.1,153
		C389.1,169.6,410.1,191.8,425.2,217.7z"/>
	<path id="XMLID_271_" class="st0" d="M147.9,153L136,141.1c-28.6-28.6-77.2-17.1-90.1,21.2l-2.9,8.5l43.7,47
		C101.9,191.8,122.9,169.6,147.9,153z"/>
	<path id="XMLID_270_" class="st0" d="M80.9,403.9l-15.3,17.6c-25.3,25.9-21,73.2,21.6,87.5l8.9,3l41.5-39.8
		C113.9,454.1,94.4,430.8,80.9,403.9z"/>
	<path id="XMLID_269_" class="st0" d="M431.5,403c-13.3,26.9-32.7,50.4-56.3,68.5l40.5,40.5c3.4-1.9,36.7-6.9,44.7-40.9
		c4.3-18.3-1-37.1-14-50.4L431.5,403z"/>
</g>
</svg>
